<mxfile host="app.diagrams.net" modified="2024-03-22T02:33:43.368Z" agent="Mozilla/5.0 (Windows NT 10.0; Win64; x64) AppleWebKit/537.36 (KHTML, like Gecko) Chrome/121.0.0.0 Safari/537.36 OPR/107.0.0.0" etag="tfZ8bo-82Aq3OXRsJhFI" version="24.0.7" type="device">
  <diagram name="Página-1" id="f4ME4mft7RAecmG14nux">
    <mxGraphModel dx="6487" dy="2624" grid="1" gridSize="10" guides="1" tooltips="1" connect="1" arrows="1" fold="1" page="1" pageScale="1" pageWidth="827" pageHeight="1169" math="0" shadow="0">
      <root>
        <mxCell id="0" />
        <mxCell id="1" parent="0" />
        <mxCell id="KkR8MlcNK8oAM6XFenOb-17" style="edgeStyle=orthogonalEdgeStyle;rounded=0;orthogonalLoop=1;jettySize=auto;html=1;exitX=0.5;exitY=1;exitDx=0;exitDy=0;entryX=0.5;entryY=0;entryDx=0;entryDy=0;" edge="1" parent="1" source="KkR8MlcNK8oAM6XFenOb-1" target="KkR8MlcNK8oAM6XFenOb-2">
          <mxGeometry relative="1" as="geometry" />
        </mxCell>
        <mxCell id="KkR8MlcNK8oAM6XFenOb-1" value="Inicio" style="ellipse;whiteSpace=wrap;html=1;aspect=fixed;" vertex="1" parent="1">
          <mxGeometry x="548" y="150" width="80" height="80" as="geometry" />
        </mxCell>
        <mxCell id="KkR8MlcNK8oAM6XFenOb-19" style="edgeStyle=orthogonalEdgeStyle;rounded=0;orthogonalLoop=1;jettySize=auto;html=1;exitX=0.5;exitY=1;exitDx=0;exitDy=0;entryX=0.5;entryY=0;entryDx=0;entryDy=0;" edge="1" parent="1" source="KkR8MlcNK8oAM6XFenOb-2" target="KkR8MlcNK8oAM6XFenOb-3">
          <mxGeometry relative="1" as="geometry" />
        </mxCell>
        <mxCell id="KkR8MlcNK8oAM6XFenOb-2" value="Saludar al consumidor" style="whiteSpace=wrap;html=1;" vertex="1" parent="1">
          <mxGeometry x="460" y="250" width="256" height="30" as="geometry" />
        </mxCell>
        <mxCell id="KkR8MlcNK8oAM6XFenOb-11" style="edgeStyle=orthogonalEdgeStyle;rounded=0;orthogonalLoop=1;jettySize=auto;html=1;exitX=1;exitY=0.5;exitDx=0;exitDy=0;entryX=0;entryY=0.5;entryDx=0;entryDy=0;" edge="1" parent="1" source="KkR8MlcNK8oAM6XFenOb-3" target="KkR8MlcNK8oAM6XFenOb-7">
          <mxGeometry relative="1" as="geometry" />
        </mxCell>
        <mxCell id="KkR8MlcNK8oAM6XFenOb-20" style="edgeStyle=orthogonalEdgeStyle;rounded=0;orthogonalLoop=1;jettySize=auto;html=1;exitX=0.5;exitY=1;exitDx=0;exitDy=0;entryX=0.5;entryY=0;entryDx=0;entryDy=0;" edge="1" parent="1" source="KkR8MlcNK8oAM6XFenOb-3" target="KkR8MlcNK8oAM6XFenOb-4">
          <mxGeometry relative="1" as="geometry" />
        </mxCell>
        <mxCell id="KkR8MlcNK8oAM6XFenOb-3" value="Pedir al usuario ingrese su nombre completo" style="whiteSpace=wrap;html=1;" vertex="1" parent="1">
          <mxGeometry x="451" y="300" width="274" height="30" as="geometry" />
        </mxCell>
        <mxCell id="KkR8MlcNK8oAM6XFenOb-21" style="edgeStyle=orthogonalEdgeStyle;rounded=0;orthogonalLoop=1;jettySize=auto;html=1;exitX=0.5;exitY=1;exitDx=0;exitDy=0;entryX=0.5;entryY=0;entryDx=0;entryDy=0;" edge="1" parent="1" source="KkR8MlcNK8oAM6XFenOb-4" target="KkR8MlcNK8oAM6XFenOb-5">
          <mxGeometry relative="1" as="geometry" />
        </mxCell>
        <mxCell id="KkR8MlcNK8oAM6XFenOb-4" value="Desplegar las detalles del pedido default (licuado base) y precio base" style="whiteSpace=wrap;html=1;" vertex="1" parent="1">
          <mxGeometry x="359.5" y="350" width="457" height="30" as="geometry" />
        </mxCell>
        <mxCell id="KkR8MlcNK8oAM6XFenOb-25" value="" style="edgeStyle=orthogonalEdgeStyle;rounded=0;orthogonalLoop=1;jettySize=auto;html=1;" edge="1" parent="1" source="KkR8MlcNK8oAM6XFenOb-5" target="KkR8MlcNK8oAM6XFenOb-14">
          <mxGeometry relative="1" as="geometry" />
        </mxCell>
        <mxCell id="KkR8MlcNK8oAM6XFenOb-27" style="edgeStyle=orthogonalEdgeStyle;rounded=0;orthogonalLoop=1;jettySize=auto;html=1;exitX=0.5;exitY=1;exitDx=0;exitDy=0;entryX=0.5;entryY=0;entryDx=0;entryDy=0;" edge="1" parent="1" source="KkR8MlcNK8oAM6XFenOb-5" target="KkR8MlcNK8oAM6XFenOb-23">
          <mxGeometry relative="1" as="geometry" />
        </mxCell>
        <mxCell id="KkR8MlcNK8oAM6XFenOb-5" value="Desplegar menú de opciones: 1 = Conforme con su pedido ; 2 = Modificar pedido ; 3 = Cancelar pedido" style="whiteSpace=wrap;html=1;" vertex="1" parent="1">
          <mxGeometry x="432" y="400" width="310" height="50" as="geometry" />
        </mxCell>
        <mxCell id="KkR8MlcNK8oAM6XFenOb-12" style="edgeStyle=orthogonalEdgeStyle;rounded=0;orthogonalLoop=1;jettySize=auto;html=1;exitX=1;exitY=0.5;exitDx=0;exitDy=0;entryX=0;entryY=0.5;entryDx=0;entryDy=0;" edge="1" parent="1" source="KkR8MlcNK8oAM6XFenOb-6" target="KkR8MlcNK8oAM6XFenOb-5">
          <mxGeometry relative="1" as="geometry" />
        </mxCell>
        <mxCell id="KkR8MlcNK8oAM6XFenOb-6" value="int a1" style="shape=parallelogram;perimeter=parallelogramPerimeter;whiteSpace=wrap;html=1;fixedSize=1;" vertex="1" parent="1">
          <mxGeometry x="324" y="407.5" width="70" height="35" as="geometry" />
        </mxCell>
        <mxCell id="KkR8MlcNK8oAM6XFenOb-7" value="NombreUsuario" style="shape=parallelogram;perimeter=parallelogramPerimeter;whiteSpace=wrap;html=1;fixedSize=1;" vertex="1" parent="1">
          <mxGeometry x="784" y="300" width="150" height="30" as="geometry" />
        </mxCell>
        <mxCell id="KkR8MlcNK8oAM6XFenOb-10" style="edgeStyle=orthogonalEdgeStyle;rounded=0;orthogonalLoop=1;jettySize=auto;html=1;entryX=1;entryY=0.25;entryDx=0;entryDy=0;exitX=0.074;exitY=0.453;exitDx=0;exitDy=0;exitPerimeter=0;" edge="1" parent="1" source="KkR8MlcNK8oAM6XFenOb-8" target="KkR8MlcNK8oAM6XFenOb-4">
          <mxGeometry relative="1" as="geometry" />
        </mxCell>
        <mxCell id="KkR8MlcNK8oAM6XFenOb-8" value="PrecioInicial = 20&lt;div&gt;Azúcar = 0&lt;/div&gt;&lt;div&gt;Leche = 0&lt;/div&gt;&lt;div&gt;Tamaño = 0&lt;/div&gt;" style="shape=parallelogram;perimeter=parallelogramPerimeter;whiteSpace=wrap;html=1;fixedSize=1;" vertex="1" parent="1">
          <mxGeometry x="1174" y="330" width="150" height="60" as="geometry" />
        </mxCell>
        <mxCell id="KkR8MlcNK8oAM6XFenOb-14" value="a1 = &quot; &quot;" style="shape=parallelogram;perimeter=parallelogramPerimeter;whiteSpace=wrap;html=1;fixedSize=1;" vertex="1" parent="1">
          <mxGeometry x="784" y="410" width="90" height="30" as="geometry" />
        </mxCell>
        <mxCell id="KkR8MlcNK8oAM6XFenOb-29" style="edgeStyle=orthogonalEdgeStyle;rounded=0;orthogonalLoop=1;jettySize=auto;html=1;exitX=0.5;exitY=1;exitDx=0;exitDy=0;entryX=0.5;entryY=0;entryDx=0;entryDy=0;" edge="1" parent="1" source="KkR8MlcNK8oAM6XFenOb-23" target="KkR8MlcNK8oAM6XFenOb-28">
          <mxGeometry relative="1" as="geometry" />
        </mxCell>
        <mxCell id="KkR8MlcNK8oAM6XFenOb-30" value="a1=2" style="edgeLabel;html=1;align=center;verticalAlign=middle;resizable=0;points=[];" vertex="1" connectable="0" parent="KkR8MlcNK8oAM6XFenOb-29">
          <mxGeometry x="-0.0278" y="-2" relative="1" as="geometry">
            <mxPoint as="offset" />
          </mxGeometry>
        </mxCell>
        <mxCell id="KkR8MlcNK8oAM6XFenOb-295" style="edgeStyle=orthogonalEdgeStyle;rounded=0;orthogonalLoop=1;jettySize=auto;html=1;exitX=0;exitY=0.5;exitDx=0;exitDy=0;entryX=0;entryY=0.5;entryDx=0;entryDy=0;" edge="1" parent="1" source="KkR8MlcNK8oAM6XFenOb-23" target="KkR8MlcNK8oAM6XFenOb-210">
          <mxGeometry relative="1" as="geometry">
            <Array as="points">
              <mxPoint x="-496" y="500" />
              <mxPoint x="-496" y="1555" />
            </Array>
          </mxGeometry>
        </mxCell>
        <mxCell id="KkR8MlcNK8oAM6XFenOb-296" style="edgeStyle=orthogonalEdgeStyle;rounded=0;orthogonalLoop=1;jettySize=auto;html=1;exitX=1;exitY=0.5;exitDx=0;exitDy=0;entryX=1;entryY=0.5;entryDx=0;entryDy=0;" edge="1" parent="1" source="KkR8MlcNK8oAM6XFenOb-23" target="KkR8MlcNK8oAM6XFenOb-290">
          <mxGeometry relative="1" as="geometry">
            <Array as="points">
              <mxPoint x="1214" y="500" />
              <mxPoint x="1214" y="2190" />
            </Array>
          </mxGeometry>
        </mxCell>
        <mxCell id="KkR8MlcNK8oAM6XFenOb-23" value="a1 = 1 ; a1=2 ; a1=3" style="rhombus;whiteSpace=wrap;html=1;" vertex="1" parent="1">
          <mxGeometry x="495.49999999999994" y="470" width="185" height="60" as="geometry" />
        </mxCell>
        <mxCell id="KkR8MlcNK8oAM6XFenOb-34" value="" style="edgeStyle=orthogonalEdgeStyle;rounded=0;orthogonalLoop=1;jettySize=auto;html=1;" edge="1" parent="1" source="KkR8MlcNK8oAM6XFenOb-28" target="KkR8MlcNK8oAM6XFenOb-32">
          <mxGeometry relative="1" as="geometry" />
        </mxCell>
        <mxCell id="KkR8MlcNK8oAM6XFenOb-36" style="edgeStyle=orthogonalEdgeStyle;rounded=0;orthogonalLoop=1;jettySize=auto;html=1;exitX=0.5;exitY=1;exitDx=0;exitDy=0;entryX=0.5;entryY=0;entryDx=0;entryDy=0;" edge="1" parent="1" source="KkR8MlcNK8oAM6XFenOb-28" target="KkR8MlcNK8oAM6XFenOb-35">
          <mxGeometry relative="1" as="geometry" />
        </mxCell>
        <mxCell id="KkR8MlcNK8oAM6XFenOb-28" value="Desplegar menú de opciones:&amp;nbsp; 1 = agregar azúcar ;&amp;nbsp; 2 = cambiar tipo de leche ; 3 = Agrandar licuado ; 4 = regresar" style="whiteSpace=wrap;html=1;" vertex="1" parent="1">
          <mxGeometry x="417.94" y="590" width="340.12" height="50" as="geometry" />
        </mxCell>
        <mxCell id="KkR8MlcNK8oAM6XFenOb-33" value="" style="edgeStyle=orthogonalEdgeStyle;rounded=0;orthogonalLoop=1;jettySize=auto;html=1;" edge="1" parent="1" source="KkR8MlcNK8oAM6XFenOb-31" target="KkR8MlcNK8oAM6XFenOb-28">
          <mxGeometry relative="1" as="geometry" />
        </mxCell>
        <mxCell id="KkR8MlcNK8oAM6XFenOb-31" value="int a2" style="shape=parallelogram;perimeter=parallelogramPerimeter;whiteSpace=wrap;html=1;fixedSize=1;" vertex="1" parent="1">
          <mxGeometry x="304" y="602.5" width="77" height="25" as="geometry" />
        </mxCell>
        <mxCell id="KkR8MlcNK8oAM6XFenOb-32" value="a2 = &quot; &quot;" style="shape=parallelogram;perimeter=parallelogramPerimeter;whiteSpace=wrap;html=1;fixedSize=1;" vertex="1" parent="1">
          <mxGeometry x="784" y="600" width="90" height="30" as="geometry" />
        </mxCell>
        <mxCell id="KkR8MlcNK8oAM6XFenOb-45" value="" style="edgeStyle=orthogonalEdgeStyle;rounded=0;orthogonalLoop=1;jettySize=auto;html=1;" edge="1" parent="1" source="KkR8MlcNK8oAM6XFenOb-35" target="KkR8MlcNK8oAM6XFenOb-38">
          <mxGeometry relative="1" as="geometry" />
        </mxCell>
        <mxCell id="KkR8MlcNK8oAM6XFenOb-46" value="a2=2" style="edgeLabel;html=1;align=center;verticalAlign=middle;resizable=0;points=[];" vertex="1" connectable="0" parent="KkR8MlcNK8oAM6XFenOb-45">
          <mxGeometry x="-0.1042" relative="1" as="geometry">
            <mxPoint as="offset" />
          </mxGeometry>
        </mxCell>
        <mxCell id="KkR8MlcNK8oAM6XFenOb-52" style="edgeStyle=orthogonalEdgeStyle;rounded=0;orthogonalLoop=1;jettySize=auto;html=1;exitX=0.5;exitY=1;exitDx=0;exitDy=0;" edge="1" parent="1" source="KkR8MlcNK8oAM6XFenOb-35" target="KkR8MlcNK8oAM6XFenOb-47">
          <mxGeometry relative="1" as="geometry">
            <Array as="points">
              <mxPoint x="55.000000000000014" y="720" />
            </Array>
          </mxGeometry>
        </mxCell>
        <mxCell id="KkR8MlcNK8oAM6XFenOb-53" value="a2=1" style="edgeLabel;html=1;align=center;verticalAlign=middle;resizable=0;points=[];" vertex="1" connectable="0" parent="KkR8MlcNK8oAM6XFenOb-52">
          <mxGeometry x="0.8431" y="-1" relative="1" as="geometry">
            <mxPoint as="offset" />
          </mxGeometry>
        </mxCell>
        <mxCell id="KkR8MlcNK8oAM6XFenOb-114" style="edgeStyle=orthogonalEdgeStyle;rounded=0;orthogonalLoop=1;jettySize=auto;html=1;exitX=1;exitY=0.5;exitDx=0;exitDy=0;entryX=1;entryY=0.75;entryDx=0;entryDy=0;" edge="1" parent="1" source="KkR8MlcNK8oAM6XFenOb-35" target="KkR8MlcNK8oAM6XFenOb-4">
          <mxGeometry relative="1" as="geometry">
            <Array as="points">
              <mxPoint x="954" y="690" />
              <mxPoint x="954" y="372" />
            </Array>
          </mxGeometry>
        </mxCell>
        <mxCell id="KkR8MlcNK8oAM6XFenOb-115" value="a2=4" style="edgeLabel;html=1;align=center;verticalAlign=middle;resizable=0;points=[];" vertex="1" connectable="0" parent="KkR8MlcNK8oAM6XFenOb-114">
          <mxGeometry x="0.2899" relative="1" as="geometry">
            <mxPoint as="offset" />
          </mxGeometry>
        </mxCell>
        <mxCell id="KkR8MlcNK8oAM6XFenOb-187" style="edgeStyle=orthogonalEdgeStyle;rounded=0;orthogonalLoop=1;jettySize=auto;html=1;exitX=0.5;exitY=1;exitDx=0;exitDy=0;entryX=0.5;entryY=0;entryDx=0;entryDy=0;" edge="1" parent="1" source="KkR8MlcNK8oAM6XFenOb-35" target="KkR8MlcNK8oAM6XFenOb-110">
          <mxGeometry relative="1" as="geometry">
            <Array as="points">
              <mxPoint x="996" y="720" />
            </Array>
          </mxGeometry>
        </mxCell>
        <mxCell id="KkR8MlcNK8oAM6XFenOb-188" value="a2=3" style="edgeLabel;html=1;align=center;verticalAlign=middle;resizable=0;points=[];" vertex="1" connectable="0" parent="KkR8MlcNK8oAM6XFenOb-187">
          <mxGeometry x="0.8704" y="2" relative="1" as="geometry">
            <mxPoint as="offset" />
          </mxGeometry>
        </mxCell>
        <mxCell id="KkR8MlcNK8oAM6XFenOb-35" value="a2=1 ; a2=2 ;&lt;div&gt;a2=3 ; a2= 4&lt;/div&gt;" style="rhombus;whiteSpace=wrap;html=1;" vertex="1" parent="1">
          <mxGeometry x="495.49999999999994" y="660" width="185" height="60" as="geometry" />
        </mxCell>
        <mxCell id="KkR8MlcNK8oAM6XFenOb-44" value="" style="edgeStyle=orthogonalEdgeStyle;rounded=0;orthogonalLoop=1;jettySize=auto;html=1;" edge="1" parent="1" source="KkR8MlcNK8oAM6XFenOb-38" target="KkR8MlcNK8oAM6XFenOb-43">
          <mxGeometry relative="1" as="geometry" />
        </mxCell>
        <mxCell id="KkR8MlcNK8oAM6XFenOb-168" style="edgeStyle=orthogonalEdgeStyle;rounded=0;orthogonalLoop=1;jettySize=auto;html=1;exitX=0.5;exitY=1;exitDx=0;exitDy=0;entryX=0.5;entryY=0;entryDx=0;entryDy=0;" edge="1" parent="1" source="KkR8MlcNK8oAM6XFenOb-38" target="KkR8MlcNK8oAM6XFenOb-106">
          <mxGeometry relative="1" as="geometry" />
        </mxCell>
        <mxCell id="KkR8MlcNK8oAM6XFenOb-38" value="Desplegar menú de opciones:&amp;nbsp;&lt;div&gt;1 = sin leche/agua ;&amp;nbsp;&lt;/div&gt;&lt;div&gt;2 = deslactosada ;&amp;nbsp;&lt;/div&gt;&lt;div&gt;3 = entera ; 4 = soya ; 5 = salir&lt;/div&gt;" style="whiteSpace=wrap;html=1;" vertex="1" parent="1">
          <mxGeometry x="523.0500000000001" y="780" width="127.9" height="100" as="geometry" />
        </mxCell>
        <mxCell id="KkR8MlcNK8oAM6XFenOb-39" style="edgeStyle=orthogonalEdgeStyle;rounded=0;orthogonalLoop=1;jettySize=auto;html=1;exitX=1;exitY=0.5;exitDx=0;exitDy=0;entryX=0;entryY=0.5;entryDx=0;entryDy=0;" edge="1" parent="1" source="KkR8MlcNK8oAM6XFenOb-40" target="KkR8MlcNK8oAM6XFenOb-38">
          <mxGeometry relative="1" as="geometry" />
        </mxCell>
        <mxCell id="KkR8MlcNK8oAM6XFenOb-40" value="int a3" style="shape=parallelogram;perimeter=parallelogramPerimeter;whiteSpace=wrap;html=1;fixedSize=1;" vertex="1" parent="1">
          <mxGeometry x="408.06" y="816.25" width="77" height="27.5" as="geometry" />
        </mxCell>
        <mxCell id="KkR8MlcNK8oAM6XFenOb-43" value="a3 = &quot; &quot;" style="shape=parallelogram;perimeter=parallelogramPerimeter;whiteSpace=wrap;html=1;fixedSize=1;" vertex="1" parent="1">
          <mxGeometry x="678.0600000000001" y="817.5" width="80" height="25" as="geometry" />
        </mxCell>
        <mxCell id="KkR8MlcNK8oAM6XFenOb-51" value="" style="edgeStyle=orthogonalEdgeStyle;rounded=0;orthogonalLoop=1;jettySize=auto;html=1;" edge="1" parent="1" source="KkR8MlcNK8oAM6XFenOb-47" target="KkR8MlcNK8oAM6XFenOb-50">
          <mxGeometry relative="1" as="geometry" />
        </mxCell>
        <mxCell id="KkR8MlcNK8oAM6XFenOb-113" style="edgeStyle=orthogonalEdgeStyle;rounded=0;orthogonalLoop=1;jettySize=auto;html=1;exitX=0.5;exitY=1;exitDx=0;exitDy=0;entryX=0.5;entryY=0;entryDx=0;entryDy=0;" edge="1" parent="1" source="KkR8MlcNK8oAM6XFenOb-47" target="KkR8MlcNK8oAM6XFenOb-112">
          <mxGeometry relative="1" as="geometry" />
        </mxCell>
        <mxCell id="KkR8MlcNK8oAM6XFenOb-47" value="Desplegar menú de opciones:&amp;nbsp;&lt;div&gt;1 = azúcar blanca ;&lt;/div&gt;&lt;div&gt;2 = azúcar morena;&lt;/div&gt;&lt;div&gt;3 = suplemento ;&lt;/div&gt;&lt;div&gt;4 = salir&lt;/div&gt;" style="whiteSpace=wrap;html=1;" vertex="1" parent="1">
          <mxGeometry x="-8.900000000000023" y="780" width="127.9" height="100" as="geometry" />
        </mxCell>
        <mxCell id="KkR8MlcNK8oAM6XFenOb-48" style="edgeStyle=orthogonalEdgeStyle;rounded=0;orthogonalLoop=1;jettySize=auto;html=1;exitX=1;exitY=0.5;exitDx=0;exitDy=0;entryX=0;entryY=0.5;entryDx=0;entryDy=0;" edge="1" parent="1" source="KkR8MlcNK8oAM6XFenOb-49" target="KkR8MlcNK8oAM6XFenOb-47">
          <mxGeometry relative="1" as="geometry" />
        </mxCell>
        <mxCell id="KkR8MlcNK8oAM6XFenOb-49" value="int a3" style="shape=parallelogram;perimeter=parallelogramPerimeter;whiteSpace=wrap;html=1;fixedSize=1;" vertex="1" parent="1">
          <mxGeometry x="-106.00000000000004" y="812.5" width="77" height="35" as="geometry" />
        </mxCell>
        <mxCell id="KkR8MlcNK8oAM6XFenOb-50" value="a3 = &quot; &quot;" style="shape=parallelogram;perimeter=parallelogramPerimeter;whiteSpace=wrap;html=1;fixedSize=1;" vertex="1" parent="1">
          <mxGeometry x="154.12" y="815" width="80" height="30" as="geometry" />
        </mxCell>
        <mxCell id="KkR8MlcNK8oAM6XFenOb-170" value="" style="edgeStyle=orthogonalEdgeStyle;rounded=0;orthogonalLoop=1;jettySize=auto;html=1;" edge="1" parent="1" source="KkR8MlcNK8oAM6XFenOb-106" target="KkR8MlcNK8oAM6XFenOb-169">
          <mxGeometry relative="1" as="geometry" />
        </mxCell>
        <mxCell id="KkR8MlcNK8oAM6XFenOb-171" value="a3=1" style="edgeLabel;html=1;align=center;verticalAlign=middle;resizable=0;points=[];" vertex="1" connectable="0" parent="KkR8MlcNK8oAM6XFenOb-170">
          <mxGeometry x="-0.2704" y="-1" relative="1" as="geometry">
            <mxPoint as="offset" />
          </mxGeometry>
        </mxCell>
        <mxCell id="KkR8MlcNK8oAM6XFenOb-173" style="edgeStyle=orthogonalEdgeStyle;rounded=0;orthogonalLoop=1;jettySize=auto;html=1;exitX=0.5;exitY=1;exitDx=0;exitDy=0;entryX=0.5;entryY=0;entryDx=0;entryDy=0;" edge="1" parent="1" source="KkR8MlcNK8oAM6XFenOb-106" target="KkR8MlcNK8oAM6XFenOb-172">
          <mxGeometry relative="1" as="geometry">
            <Array as="points">
              <mxPoint x="690" y="960" />
            </Array>
          </mxGeometry>
        </mxCell>
        <mxCell id="KkR8MlcNK8oAM6XFenOb-174" value="a3=4" style="edgeLabel;html=1;align=center;verticalAlign=middle;resizable=0;points=[];" vertex="1" connectable="0" parent="KkR8MlcNK8oAM6XFenOb-173">
          <mxGeometry x="0.6877" relative="1" as="geometry">
            <mxPoint as="offset" />
          </mxGeometry>
        </mxCell>
        <mxCell id="KkR8MlcNK8oAM6XFenOb-199" style="edgeStyle=orthogonalEdgeStyle;rounded=0;orthogonalLoop=1;jettySize=auto;html=1;exitX=1;exitY=0.5;exitDx=0;exitDy=0;entryX=1;entryY=0.75;entryDx=0;entryDy=0;" edge="1" parent="1" source="KkR8MlcNK8oAM6XFenOb-106" target="KkR8MlcNK8oAM6XFenOb-4">
          <mxGeometry relative="1" as="geometry">
            <Array as="points">
              <mxPoint x="894" y="930" />
              <mxPoint x="894" y="372" />
            </Array>
          </mxGeometry>
        </mxCell>
        <mxCell id="KkR8MlcNK8oAM6XFenOb-200" value="a3=5" style="edgeLabel;html=1;align=center;verticalAlign=middle;resizable=0;points=[];" vertex="1" connectable="0" parent="KkR8MlcNK8oAM6XFenOb-199">
          <mxGeometry x="-0.7458" y="1" relative="1" as="geometry">
            <mxPoint as="offset" />
          </mxGeometry>
        </mxCell>
        <mxCell id="KkR8MlcNK8oAM6XFenOb-106" value="a3=1 ; a3=2 ; a3=3 ;&lt;div&gt;a3=4 ; a3=5&lt;/div&gt;" style="rhombus;whiteSpace=wrap;html=1;" vertex="1" parent="1">
          <mxGeometry x="494.49999999999994" y="900" width="185" height="60" as="geometry" />
        </mxCell>
        <mxCell id="KkR8MlcNK8oAM6XFenOb-108" value="" style="edgeStyle=orthogonalEdgeStyle;rounded=0;orthogonalLoop=1;jettySize=auto;html=1;" edge="1" parent="1" source="KkR8MlcNK8oAM6XFenOb-110" target="KkR8MlcNK8oAM6XFenOb-111">
          <mxGeometry relative="1" as="geometry" />
        </mxCell>
        <mxCell id="KkR8MlcNK8oAM6XFenOb-109" value="Sí" style="edgeLabel;html=1;align=center;verticalAlign=middle;resizable=0;points=[];" vertex="1" connectable="0" parent="KkR8MlcNK8oAM6XFenOb-108">
          <mxGeometry x="-0.2287" y="-2" relative="1" as="geometry">
            <mxPoint as="offset" />
          </mxGeometry>
        </mxCell>
        <mxCell id="KkR8MlcNK8oAM6XFenOb-202" style="edgeStyle=orthogonalEdgeStyle;rounded=0;orthogonalLoop=1;jettySize=auto;html=1;exitX=1;exitY=0.5;exitDx=0;exitDy=0;entryX=1;entryY=0.75;entryDx=0;entryDy=0;" edge="1" parent="1" source="KkR8MlcNK8oAM6XFenOb-110" target="KkR8MlcNK8oAM6XFenOb-4">
          <mxGeometry relative="1" as="geometry">
            <Array as="points">
              <mxPoint x="1084" y="815" />
              <mxPoint x="1084" y="373" />
            </Array>
          </mxGeometry>
        </mxCell>
        <mxCell id="KkR8MlcNK8oAM6XFenOb-203" value="No" style="edgeLabel;html=1;align=center;verticalAlign=middle;resizable=0;points=[];" vertex="1" connectable="0" parent="KkR8MlcNK8oAM6XFenOb-202">
          <mxGeometry x="-0.4034" relative="1" as="geometry">
            <mxPoint as="offset" />
          </mxGeometry>
        </mxCell>
        <mxCell id="KkR8MlcNK8oAM6XFenOb-110" value="¿Desea convertir de&lt;div&gt;mediano a grande?&lt;/div&gt;" style="rhombus;whiteSpace=wrap;html=1;" vertex="1" parent="1">
          <mxGeometry x="906.5" y="780" width="180" height="70" as="geometry" />
        </mxCell>
        <mxCell id="KkR8MlcNK8oAM6XFenOb-205" style="edgeStyle=orthogonalEdgeStyle;rounded=0;orthogonalLoop=1;jettySize=auto;html=1;exitX=0.5;exitY=1;exitDx=0;exitDy=0;entryX=0.75;entryY=0;entryDx=0;entryDy=0;" edge="1" parent="1" source="KkR8MlcNK8oAM6XFenOb-111" target="KkR8MlcNK8oAM6XFenOb-117">
          <mxGeometry relative="1" as="geometry">
            <Array as="points">
              <mxPoint x="997" y="1240" />
              <mxPoint x="680" y="1240" />
            </Array>
          </mxGeometry>
        </mxCell>
        <mxCell id="KkR8MlcNK8oAM6XFenOb-111" value="Tamaño = 0.07" style="whiteSpace=wrap;html=1;" vertex="1" parent="1">
          <mxGeometry x="936.5" y="900" width="120" height="33.53" as="geometry" />
        </mxCell>
        <mxCell id="KkR8MlcNK8oAM6XFenOb-119" value="" style="edgeStyle=orthogonalEdgeStyle;rounded=0;orthogonalLoop=1;jettySize=auto;html=1;" edge="1" parent="1" source="KkR8MlcNK8oAM6XFenOb-112" target="KkR8MlcNK8oAM6XFenOb-118">
          <mxGeometry relative="1" as="geometry" />
        </mxCell>
        <mxCell id="KkR8MlcNK8oAM6XFenOb-162" value="a3=2" style="edgeLabel;html=1;align=center;verticalAlign=middle;resizable=0;points=[];" vertex="1" connectable="0" parent="KkR8MlcNK8oAM6XFenOb-119">
          <mxGeometry x="-0.2809" relative="1" as="geometry">
            <mxPoint as="offset" />
          </mxGeometry>
        </mxCell>
        <mxCell id="KkR8MlcNK8oAM6XFenOb-163" style="edgeStyle=orthogonalEdgeStyle;rounded=0;orthogonalLoop=1;jettySize=auto;html=1;exitX=0.5;exitY=1;exitDx=0;exitDy=0;entryX=0.5;entryY=0;entryDx=0;entryDy=0;" edge="1" parent="1" source="KkR8MlcNK8oAM6XFenOb-112" target="KkR8MlcNK8oAM6XFenOb-137">
          <mxGeometry relative="1" as="geometry">
            <Array as="points">
              <mxPoint x="-253" y="960" />
            </Array>
          </mxGeometry>
        </mxCell>
        <mxCell id="KkR8MlcNK8oAM6XFenOb-193" value="a3=1" style="edgeLabel;html=1;align=center;verticalAlign=middle;resizable=0;points=[];" vertex="1" connectable="0" parent="KkR8MlcNK8oAM6XFenOb-163">
          <mxGeometry x="0.856" y="-2" relative="1" as="geometry">
            <mxPoint as="offset" />
          </mxGeometry>
        </mxCell>
        <mxCell id="KkR8MlcNK8oAM6XFenOb-164" style="edgeStyle=orthogonalEdgeStyle;rounded=0;orthogonalLoop=1;jettySize=auto;html=1;exitX=0.5;exitY=1;exitDx=0;exitDy=0;entryX=0.5;entryY=0;entryDx=0;entryDy=0;" edge="1" parent="1" source="KkR8MlcNK8oAM6XFenOb-112" target="KkR8MlcNK8oAM6XFenOb-150">
          <mxGeometry relative="1" as="geometry">
            <Array as="points">
              <mxPoint x="358" y="960" />
            </Array>
          </mxGeometry>
        </mxCell>
        <mxCell id="KkR8MlcNK8oAM6XFenOb-195" value="a3=0" style="edgeLabel;html=1;align=center;verticalAlign=middle;resizable=0;points=[];" vertex="1" connectable="0" parent="KkR8MlcNK8oAM6XFenOb-164">
          <mxGeometry x="0.8395" y="2" relative="1" as="geometry">
            <mxPoint as="offset" />
          </mxGeometry>
        </mxCell>
        <mxCell id="KkR8MlcNK8oAM6XFenOb-191" style="edgeStyle=orthogonalEdgeStyle;rounded=0;orthogonalLoop=1;jettySize=auto;html=1;exitX=0;exitY=0.5;exitDx=0;exitDy=0;entryX=0;entryY=0.5;entryDx=0;entryDy=0;" edge="1" parent="1" source="KkR8MlcNK8oAM6XFenOb-112" target="KkR8MlcNK8oAM6XFenOb-4">
          <mxGeometry relative="1" as="geometry">
            <Array as="points">
              <mxPoint x="-136" y="930" />
              <mxPoint x="-136" y="365" />
            </Array>
          </mxGeometry>
        </mxCell>
        <mxCell id="KkR8MlcNK8oAM6XFenOb-196" value="a3=4" style="edgeLabel;html=1;align=center;verticalAlign=middle;resizable=0;points=[];" vertex="1" connectable="0" parent="KkR8MlcNK8oAM6XFenOb-191">
          <mxGeometry x="-0.3405" y="1" relative="1" as="geometry">
            <mxPoint as="offset" />
          </mxGeometry>
        </mxCell>
        <mxCell id="KkR8MlcNK8oAM6XFenOb-112" value="a3=1 ; a3=2 ;&lt;div&gt;a3=3 ;&amp;nbsp;&lt;span style=&quot;background-color: initial;&quot;&gt;a3=4&lt;/span&gt;&lt;/div&gt;" style="rhombus;whiteSpace=wrap;html=1;" vertex="1" parent="1">
          <mxGeometry x="-37.45000000000003" y="900" width="185" height="60" as="geometry" />
        </mxCell>
        <mxCell id="KkR8MlcNK8oAM6XFenOb-229" style="edgeStyle=orthogonalEdgeStyle;rounded=0;orthogonalLoop=1;jettySize=auto;html=1;exitX=0.5;exitY=1;exitDx=0;exitDy=0;entryX=0.5;entryY=0;entryDx=0;entryDy=0;" edge="1" parent="1" source="KkR8MlcNK8oAM6XFenOb-117" target="KkR8MlcNK8oAM6XFenOb-207">
          <mxGeometry relative="1" as="geometry" />
        </mxCell>
        <mxCell id="KkR8MlcNK8oAM6XFenOb-117" value="Mostrar en pantalla las nuevas especificaciones del pedido" style="rounded=0;whiteSpace=wrap;html=1;" vertex="1" parent="1">
          <mxGeometry x="402" y="1320" width="370" height="60" as="geometry" />
        </mxCell>
        <mxCell id="KkR8MlcNK8oAM6XFenOb-123" value="" style="edgeStyle=orthogonalEdgeStyle;rounded=0;orthogonalLoop=1;jettySize=auto;html=1;" edge="1" parent="1" source="KkR8MlcNK8oAM6XFenOb-118" target="KkR8MlcNK8oAM6XFenOb-122">
          <mxGeometry relative="1" as="geometry" />
        </mxCell>
        <mxCell id="KkR8MlcNK8oAM6XFenOb-118" value="¿Cuántas cucharadas desea agregar?" style="whiteSpace=wrap;html=1;" vertex="1" parent="1">
          <mxGeometry x="-19.429999999999968" y="1000" width="148.95" height="50" as="geometry" />
        </mxCell>
        <mxCell id="KkR8MlcNK8oAM6XFenOb-124" value="" style="edgeStyle=orthogonalEdgeStyle;rounded=0;orthogonalLoop=1;jettySize=auto;html=1;" edge="1" parent="1" source="KkR8MlcNK8oAM6XFenOb-120" target="KkR8MlcNK8oAM6XFenOb-118">
          <mxGeometry relative="1" as="geometry" />
        </mxCell>
        <mxCell id="KkR8MlcNK8oAM6XFenOb-120" value="int c = 0" style="shape=parallelogram;perimeter=parallelogramPerimeter;whiteSpace=wrap;html=1;fixedSize=1;" vertex="1" parent="1">
          <mxGeometry x="-114.44999999999997" y="1007.5" width="77" height="35" as="geometry" />
        </mxCell>
        <mxCell id="KkR8MlcNK8oAM6XFenOb-127" style="edgeStyle=orthogonalEdgeStyle;rounded=0;orthogonalLoop=1;jettySize=auto;html=1;exitX=0.5;exitY=1;exitDx=0;exitDy=0;entryX=0.5;entryY=0;entryDx=0;entryDy=0;" edge="1" parent="1" source="KkR8MlcNK8oAM6XFenOb-122" target="KkR8MlcNK8oAM6XFenOb-125">
          <mxGeometry relative="1" as="geometry" />
        </mxCell>
        <mxCell id="KkR8MlcNK8oAM6XFenOb-122" value="c = &quot; &quot;" style="shape=parallelogram;perimeter=parallelogramPerimeter;whiteSpace=wrap;html=1;fixedSize=1;" vertex="1" parent="1">
          <mxGeometry x="16.549999999999994" y="1070" width="77" height="35" as="geometry" />
        </mxCell>
        <mxCell id="KkR8MlcNK8oAM6XFenOb-129" value="" style="edgeStyle=orthogonalEdgeStyle;rounded=0;orthogonalLoop=1;jettySize=auto;html=1;" edge="1" parent="1" source="KkR8MlcNK8oAM6XFenOb-125" target="KkR8MlcNK8oAM6XFenOb-128">
          <mxGeometry relative="1" as="geometry" />
        </mxCell>
        <mxCell id="KkR8MlcNK8oAM6XFenOb-125" value="Azúcar = 0.40 * c" style="whiteSpace=wrap;html=1;" vertex="1" parent="1">
          <mxGeometry x="-4.949999999999921" y="1120" width="120" height="30" as="geometry" />
        </mxCell>
        <mxCell id="KkR8MlcNK8oAM6XFenOb-131" value="" style="edgeStyle=orthogonalEdgeStyle;rounded=0;orthogonalLoop=1;jettySize=auto;html=1;" edge="1" parent="1" source="KkR8MlcNK8oAM6XFenOb-128" target="KkR8MlcNK8oAM6XFenOb-130">
          <mxGeometry relative="1" as="geometry" />
        </mxCell>
        <mxCell id="KkR8MlcNK8oAM6XFenOb-135" value="sí" style="edgeLabel;html=1;align=center;verticalAlign=middle;resizable=0;points=[];" vertex="1" connectable="0" parent="KkR8MlcNK8oAM6XFenOb-131">
          <mxGeometry x="-0.1331" y="2" relative="1" as="geometry">
            <mxPoint as="offset" />
          </mxGeometry>
        </mxCell>
        <mxCell id="KkR8MlcNK8oAM6XFenOb-181" style="edgeStyle=orthogonalEdgeStyle;rounded=0;orthogonalLoop=1;jettySize=auto;html=1;exitX=0.5;exitY=1;exitDx=0;exitDy=0;" edge="1" parent="1" source="KkR8MlcNK8oAM6XFenOb-128">
          <mxGeometry relative="1" as="geometry">
            <mxPoint x="493.99999999999994" y="1320.0000000000002" as="targetPoint" />
            <Array as="points">
              <mxPoint x="56.000000000000014" y="1280" />
              <mxPoint x="493.99999999999994" y="1280" />
            </Array>
          </mxGeometry>
        </mxCell>
        <mxCell id="KkR8MlcNK8oAM6XFenOb-183" value="No" style="edgeLabel;html=1;align=center;verticalAlign=middle;resizable=0;points=[];" vertex="1" connectable="0" parent="KkR8MlcNK8oAM6XFenOb-181">
          <mxGeometry x="-0.8805" relative="1" as="geometry">
            <mxPoint as="offset" />
          </mxGeometry>
        </mxCell>
        <mxCell id="KkR8MlcNK8oAM6XFenOb-128" value="Azúcar &amp;gt; 1.2" style="rhombus;whiteSpace=wrap;html=1;" vertex="1" parent="1">
          <mxGeometry x="-13.939999999999987" y="1170" width="138.95" height="35" as="geometry" />
        </mxCell>
        <mxCell id="KkR8MlcNK8oAM6XFenOb-133" style="edgeStyle=orthogonalEdgeStyle;rounded=0;orthogonalLoop=1;jettySize=auto;html=1;exitX=0.5;exitY=0;exitDx=0;exitDy=0;entryX=0;entryY=0.5;entryDx=0;entryDy=0;" edge="1" parent="1" source="KkR8MlcNK8oAM6XFenOb-130" target="KkR8MlcNK8oAM6XFenOb-120">
          <mxGeometry relative="1" as="geometry">
            <Array as="points">
              <mxPoint x="-125.99999999999999" y="1146" />
              <mxPoint x="-125.99999999999999" y="1025" />
            </Array>
          </mxGeometry>
        </mxCell>
        <mxCell id="KkR8MlcNK8oAM6XFenOb-130" value="&quot;Solo es posible agregar 3 cucharadas&quot;" style="whiteSpace=wrap;html=1;" vertex="1" parent="1">
          <mxGeometry x="-166.00000000000006" y="1146.25" width="82.59" height="82.5" as="geometry" />
        </mxCell>
        <mxCell id="KkR8MlcNK8oAM6XFenOb-136" value="" style="edgeStyle=orthogonalEdgeStyle;rounded=0;orthogonalLoop=1;jettySize=auto;html=1;" edge="1" parent="1" source="KkR8MlcNK8oAM6XFenOb-137" target="KkR8MlcNK8oAM6XFenOb-141">
          <mxGeometry relative="1" as="geometry" />
        </mxCell>
        <mxCell id="KkR8MlcNK8oAM6XFenOb-137" value="¿Cuántas cucharadas desea agregar?" style="whiteSpace=wrap;html=1;" vertex="1" parent="1">
          <mxGeometry x="-327.22" y="1007.5" width="148.95" height="50" as="geometry" />
        </mxCell>
        <mxCell id="KkR8MlcNK8oAM6XFenOb-138" value="" style="edgeStyle=orthogonalEdgeStyle;rounded=0;orthogonalLoop=1;jettySize=auto;html=1;" edge="1" parent="1" source="KkR8MlcNK8oAM6XFenOb-139" target="KkR8MlcNK8oAM6XFenOb-137">
          <mxGeometry relative="1" as="geometry" />
        </mxCell>
        <mxCell id="KkR8MlcNK8oAM6XFenOb-139" value="int c = 0" style="shape=parallelogram;perimeter=parallelogramPerimeter;whiteSpace=wrap;html=1;fixedSize=1;" vertex="1" parent="1">
          <mxGeometry x="-422.24" y="1015" width="77" height="35" as="geometry" />
        </mxCell>
        <mxCell id="KkR8MlcNK8oAM6XFenOb-140" style="edgeStyle=orthogonalEdgeStyle;rounded=0;orthogonalLoop=1;jettySize=auto;html=1;exitX=0.5;exitY=1;exitDx=0;exitDy=0;entryX=0.5;entryY=0;entryDx=0;entryDy=0;" edge="1" parent="1" source="KkR8MlcNK8oAM6XFenOb-141" target="KkR8MlcNK8oAM6XFenOb-143">
          <mxGeometry relative="1" as="geometry" />
        </mxCell>
        <mxCell id="KkR8MlcNK8oAM6XFenOb-141" value="c = &quot; &quot;" style="shape=parallelogram;perimeter=parallelogramPerimeter;whiteSpace=wrap;html=1;fixedSize=1;" vertex="1" parent="1">
          <mxGeometry x="-291.24" y="1077.5" width="77" height="35" as="geometry" />
        </mxCell>
        <mxCell id="KkR8MlcNK8oAM6XFenOb-142" value="" style="edgeStyle=orthogonalEdgeStyle;rounded=0;orthogonalLoop=1;jettySize=auto;html=1;" edge="1" parent="1" source="KkR8MlcNK8oAM6XFenOb-143" target="KkR8MlcNK8oAM6XFenOb-146">
          <mxGeometry relative="1" as="geometry" />
        </mxCell>
        <mxCell id="KkR8MlcNK8oAM6XFenOb-143" value="Azúcar = 0.60 * c" style="whiteSpace=wrap;html=1;" vertex="1" parent="1">
          <mxGeometry x="-312.73999999999995" y="1127.5" width="120" height="30" as="geometry" />
        </mxCell>
        <mxCell id="KkR8MlcNK8oAM6XFenOb-144" value="" style="edgeStyle=orthogonalEdgeStyle;rounded=0;orthogonalLoop=1;jettySize=auto;html=1;" edge="1" parent="1" source="KkR8MlcNK8oAM6XFenOb-146" target="KkR8MlcNK8oAM6XFenOb-148">
          <mxGeometry relative="1" as="geometry" />
        </mxCell>
        <mxCell id="KkR8MlcNK8oAM6XFenOb-145" value="sí" style="edgeLabel;html=1;align=center;verticalAlign=middle;resizable=0;points=[];" vertex="1" connectable="0" parent="KkR8MlcNK8oAM6XFenOb-144">
          <mxGeometry x="-0.1331" y="2" relative="1" as="geometry">
            <mxPoint as="offset" />
          </mxGeometry>
        </mxCell>
        <mxCell id="KkR8MlcNK8oAM6XFenOb-182" style="edgeStyle=orthogonalEdgeStyle;rounded=0;orthogonalLoop=1;jettySize=auto;html=1;exitX=0.5;exitY=1;exitDx=0;exitDy=0;" edge="1" parent="1" source="KkR8MlcNK8oAM6XFenOb-146">
          <mxGeometry relative="1" as="geometry">
            <mxPoint x="493.99999999999994" y="1320.0000000000002" as="targetPoint" />
            <Array as="points">
              <mxPoint x="-252" y="1300" />
              <mxPoint x="493.99999999999994" y="1300" />
            </Array>
          </mxGeometry>
        </mxCell>
        <mxCell id="KkR8MlcNK8oAM6XFenOb-185" value="No" style="edgeLabel;html=1;align=center;verticalAlign=middle;resizable=0;points=[];" vertex="1" connectable="0" parent="KkR8MlcNK8oAM6XFenOb-182">
          <mxGeometry x="-0.9326" y="-1" relative="1" as="geometry">
            <mxPoint as="offset" />
          </mxGeometry>
        </mxCell>
        <mxCell id="KkR8MlcNK8oAM6XFenOb-146" value="Azúcar &amp;gt; 1.8" style="rhombus;whiteSpace=wrap;html=1;" vertex="1" parent="1">
          <mxGeometry x="-321.73" y="1177.5" width="138.95" height="35" as="geometry" />
        </mxCell>
        <mxCell id="KkR8MlcNK8oAM6XFenOb-147" style="edgeStyle=orthogonalEdgeStyle;rounded=0;orthogonalLoop=1;jettySize=auto;html=1;exitX=0.5;exitY=0;exitDx=0;exitDy=0;entryX=0;entryY=0.5;entryDx=0;entryDy=0;" edge="1" parent="1" source="KkR8MlcNK8oAM6XFenOb-148" target="KkR8MlcNK8oAM6XFenOb-139">
          <mxGeometry relative="1" as="geometry">
            <Array as="points">
              <mxPoint x="-433.78999999999996" y="1153.5" />
              <mxPoint x="-433.78999999999996" y="1032.5" />
            </Array>
          </mxGeometry>
        </mxCell>
        <mxCell id="KkR8MlcNK8oAM6XFenOb-148" value="&quot;Solo es posible agregar 3 cucharadas&quot;" style="whiteSpace=wrap;html=1;" vertex="1" parent="1">
          <mxGeometry x="-473.7900000000001" y="1153.75" width="82.59" height="82.5" as="geometry" />
        </mxCell>
        <mxCell id="KkR8MlcNK8oAM6XFenOb-149" value="" style="edgeStyle=orthogonalEdgeStyle;rounded=0;orthogonalLoop=1;jettySize=auto;html=1;" edge="1" parent="1" source="KkR8MlcNK8oAM6XFenOb-150" target="KkR8MlcNK8oAM6XFenOb-154">
          <mxGeometry relative="1" as="geometry" />
        </mxCell>
        <mxCell id="KkR8MlcNK8oAM6XFenOb-150" value="¿Cuántas cucharadas desea agregar?" style="whiteSpace=wrap;html=1;" vertex="1" parent="1">
          <mxGeometry x="283.04999999999995" y="1000" width="148.95" height="50" as="geometry" />
        </mxCell>
        <mxCell id="KkR8MlcNK8oAM6XFenOb-151" value="" style="edgeStyle=orthogonalEdgeStyle;rounded=0;orthogonalLoop=1;jettySize=auto;html=1;" edge="1" parent="1" source="KkR8MlcNK8oAM6XFenOb-152" target="KkR8MlcNK8oAM6XFenOb-150">
          <mxGeometry relative="1" as="geometry" />
        </mxCell>
        <mxCell id="KkR8MlcNK8oAM6XFenOb-152" value="int c = 0" style="shape=parallelogram;perimeter=parallelogramPerimeter;whiteSpace=wrap;html=1;fixedSize=1;" vertex="1" parent="1">
          <mxGeometry x="188.02999999999997" y="1007.5" width="77" height="35" as="geometry" />
        </mxCell>
        <mxCell id="KkR8MlcNK8oAM6XFenOb-153" style="edgeStyle=orthogonalEdgeStyle;rounded=0;orthogonalLoop=1;jettySize=auto;html=1;exitX=0.5;exitY=1;exitDx=0;exitDy=0;entryX=0.5;entryY=0;entryDx=0;entryDy=0;" edge="1" parent="1" source="KkR8MlcNK8oAM6XFenOb-154" target="KkR8MlcNK8oAM6XFenOb-156">
          <mxGeometry relative="1" as="geometry" />
        </mxCell>
        <mxCell id="KkR8MlcNK8oAM6XFenOb-154" value="c = &quot; &quot;" style="shape=parallelogram;perimeter=parallelogramPerimeter;whiteSpace=wrap;html=1;fixedSize=1;" vertex="1" parent="1">
          <mxGeometry x="319.03" y="1070" width="77" height="35" as="geometry" />
        </mxCell>
        <mxCell id="KkR8MlcNK8oAM6XFenOb-155" value="" style="edgeStyle=orthogonalEdgeStyle;rounded=0;orthogonalLoop=1;jettySize=auto;html=1;" edge="1" parent="1" source="KkR8MlcNK8oAM6XFenOb-156" target="KkR8MlcNK8oAM6XFenOb-159">
          <mxGeometry relative="1" as="geometry" />
        </mxCell>
        <mxCell id="KkR8MlcNK8oAM6XFenOb-156" value="Azúcar = 0.90 * c" style="whiteSpace=wrap;html=1;" vertex="1" parent="1">
          <mxGeometry x="297.53000000000003" y="1120" width="120" height="30" as="geometry" />
        </mxCell>
        <mxCell id="KkR8MlcNK8oAM6XFenOb-157" value="" style="edgeStyle=orthogonalEdgeStyle;rounded=0;orthogonalLoop=1;jettySize=auto;html=1;" edge="1" parent="1" source="KkR8MlcNK8oAM6XFenOb-159" target="KkR8MlcNK8oAM6XFenOb-161">
          <mxGeometry relative="1" as="geometry" />
        </mxCell>
        <mxCell id="KkR8MlcNK8oAM6XFenOb-158" value="sí" style="edgeLabel;html=1;align=center;verticalAlign=middle;resizable=0;points=[];" vertex="1" connectable="0" parent="KkR8MlcNK8oAM6XFenOb-157">
          <mxGeometry x="-0.1331" y="2" relative="1" as="geometry">
            <mxPoint as="offset" />
          </mxGeometry>
        </mxCell>
        <mxCell id="KkR8MlcNK8oAM6XFenOb-180" style="edgeStyle=orthogonalEdgeStyle;rounded=0;orthogonalLoop=1;jettySize=auto;html=1;exitX=0.5;exitY=1;exitDx=0;exitDy=0;entryX=0.25;entryY=0;entryDx=0;entryDy=0;" edge="1" parent="1" source="KkR8MlcNK8oAM6XFenOb-159" target="KkR8MlcNK8oAM6XFenOb-117">
          <mxGeometry relative="1" as="geometry" />
        </mxCell>
        <mxCell id="KkR8MlcNK8oAM6XFenOb-184" value="No" style="edgeLabel;html=1;align=center;verticalAlign=middle;resizable=0;points=[];" vertex="1" connectable="0" parent="KkR8MlcNK8oAM6XFenOb-180">
          <mxGeometry x="-0.731" y="-1" relative="1" as="geometry">
            <mxPoint as="offset" />
          </mxGeometry>
        </mxCell>
        <mxCell id="KkR8MlcNK8oAM6XFenOb-159" value="Azúcar &amp;gt; 2.7" style="rhombus;whiteSpace=wrap;html=1;" vertex="1" parent="1">
          <mxGeometry x="288.53999999999996" y="1170" width="138.95" height="35" as="geometry" />
        </mxCell>
        <mxCell id="KkR8MlcNK8oAM6XFenOb-160" style="edgeStyle=orthogonalEdgeStyle;rounded=0;orthogonalLoop=1;jettySize=auto;html=1;exitX=0.5;exitY=0;exitDx=0;exitDy=0;entryX=0;entryY=0.5;entryDx=0;entryDy=0;" edge="1" parent="1" source="KkR8MlcNK8oAM6XFenOb-161" target="KkR8MlcNK8oAM6XFenOb-152">
          <mxGeometry relative="1" as="geometry">
            <Array as="points">
              <mxPoint x="176.48000000000002" y="1146" />
              <mxPoint x="176.48000000000002" y="1025" />
            </Array>
          </mxGeometry>
        </mxCell>
        <mxCell id="KkR8MlcNK8oAM6XFenOb-161" value="&quot;Solo es posible agregar 3 cucharadas&quot;" style="whiteSpace=wrap;html=1;" vertex="1" parent="1">
          <mxGeometry x="136.4799999999999" y="1146.25" width="82.59" height="82.5" as="geometry" />
        </mxCell>
        <mxCell id="KkR8MlcNK8oAM6XFenOb-175" style="edgeStyle=orthogonalEdgeStyle;rounded=0;orthogonalLoop=1;jettySize=auto;html=1;exitX=0.5;exitY=1;exitDx=0;exitDy=0;entryX=0.5;entryY=0;entryDx=0;entryDy=0;" edge="1" parent="1" source="KkR8MlcNK8oAM6XFenOb-169" target="KkR8MlcNK8oAM6XFenOb-117">
          <mxGeometry relative="1" as="geometry" />
        </mxCell>
        <mxCell id="KkR8MlcNK8oAM6XFenOb-169" value="Leche = -3" style="whiteSpace=wrap;html=1;" vertex="1" parent="1">
          <mxGeometry x="548" y="1000" width="77" height="30" as="geometry" />
        </mxCell>
        <mxCell id="KkR8MlcNK8oAM6XFenOb-172" value="Leche = 2" style="whiteSpace=wrap;html=1;" vertex="1" parent="1">
          <mxGeometry x="650.95" y="1000" width="77" height="30" as="geometry" />
        </mxCell>
        <mxCell id="KkR8MlcNK8oAM6XFenOb-177" style="edgeStyle=orthogonalEdgeStyle;rounded=0;orthogonalLoop=1;jettySize=auto;html=1;exitX=0.5;exitY=1;exitDx=0;exitDy=0;entryX=0.528;entryY=0.006;entryDx=0;entryDy=0;entryPerimeter=0;" edge="1" parent="1" source="KkR8MlcNK8oAM6XFenOb-172" target="KkR8MlcNK8oAM6XFenOb-117">
          <mxGeometry relative="1" as="geometry">
            <Array as="points">
              <mxPoint x="689" y="1160" />
              <mxPoint x="587" y="1160" />
              <mxPoint x="587" y="1320" />
            </Array>
          </mxGeometry>
        </mxCell>
        <mxCell id="KkR8MlcNK8oAM6XFenOb-178" style="edgeStyle=orthogonalEdgeStyle;rounded=0;orthogonalLoop=1;jettySize=auto;html=1;exitX=0.5;exitY=1;exitDx=0;exitDy=0;entryX=0.472;entryY=-0.016;entryDx=0;entryDy=0;entryPerimeter=0;" edge="1" parent="1" source="KkR8MlcNK8oAM6XFenOb-106" target="KkR8MlcNK8oAM6XFenOb-117">
          <mxGeometry relative="1" as="geometry">
            <Array as="points">
              <mxPoint x="493.99999999999994" y="960" />
              <mxPoint x="493.99999999999994" y="1160" />
              <mxPoint x="587" y="1160" />
              <mxPoint x="587" y="1319" />
            </Array>
          </mxGeometry>
        </mxCell>
        <mxCell id="KkR8MlcNK8oAM6XFenOb-179" value="a3=2 ; a3=3" style="edgeLabel;html=1;align=center;verticalAlign=middle;resizable=0;points=[];" vertex="1" connectable="0" parent="KkR8MlcNK8oAM6XFenOb-178">
          <mxGeometry x="0.2463" relative="1" as="geometry">
            <mxPoint as="offset" />
          </mxGeometry>
        </mxCell>
        <mxCell id="KkR8MlcNK8oAM6XFenOb-206" value="" style="edgeStyle=orthogonalEdgeStyle;rounded=0;orthogonalLoop=1;jettySize=auto;html=1;" edge="1" parent="1" source="KkR8MlcNK8oAM6XFenOb-207" target="KkR8MlcNK8oAM6XFenOb-215">
          <mxGeometry relative="1" as="geometry" />
        </mxCell>
        <mxCell id="KkR8MlcNK8oAM6XFenOb-231" value="Sí" style="edgeLabel;html=1;align=center;verticalAlign=middle;resizable=0;points=[];" vertex="1" connectable="0" parent="KkR8MlcNK8oAM6XFenOb-206">
          <mxGeometry x="-0.1024" y="2" relative="1" as="geometry">
            <mxPoint as="offset" />
          </mxGeometry>
        </mxCell>
        <mxCell id="KkR8MlcNK8oAM6XFenOb-235" style="edgeStyle=orthogonalEdgeStyle;rounded=0;orthogonalLoop=1;jettySize=auto;html=1;exitX=1;exitY=0.5;exitDx=0;exitDy=0;entryX=1;entryY=0.75;entryDx=0;entryDy=0;" edge="1" parent="1" source="KkR8MlcNK8oAM6XFenOb-207" target="KkR8MlcNK8oAM6XFenOb-4">
          <mxGeometry relative="1" as="geometry">
            <Array as="points">
              <mxPoint x="1154" y="1425" />
              <mxPoint x="1154" y="373" />
            </Array>
          </mxGeometry>
        </mxCell>
        <mxCell id="KkR8MlcNK8oAM6XFenOb-236" value="No" style="edgeLabel;html=1;align=center;verticalAlign=middle;resizable=0;points=[];" vertex="1" connectable="0" parent="KkR8MlcNK8oAM6XFenOb-235">
          <mxGeometry x="-0.7811" y="-4" relative="1" as="geometry">
            <mxPoint as="offset" />
          </mxGeometry>
        </mxCell>
        <mxCell id="KkR8MlcNK8oAM6XFenOb-207" value="¿Desea mantener&lt;span style=&quot;background-color: initial;&quot;&gt;&amp;nbsp;sus cambios?&lt;/span&gt;" style="rhombus;whiteSpace=wrap;html=1;rounded=0;" vertex="1" parent="1">
          <mxGeometry x="457.40999999999997" y="1400" width="258.18" height="50" as="geometry" />
        </mxCell>
        <mxCell id="KkR8MlcNK8oAM6XFenOb-208" style="edgeStyle=orthogonalEdgeStyle;rounded=0;orthogonalLoop=1;jettySize=auto;html=1;exitX=0;exitY=0.5;exitDx=0;exitDy=0;entryX=0.5;entryY=0;entryDx=0;entryDy=0;" edge="1" parent="1" source="KkR8MlcNK8oAM6XFenOb-210" target="KkR8MlcNK8oAM6XFenOb-213">
          <mxGeometry relative="1" as="geometry" />
        </mxCell>
        <mxCell id="KkR8MlcNK8oAM6XFenOb-233" style="edgeStyle=orthogonalEdgeStyle;rounded=0;orthogonalLoop=1;jettySize=auto;html=1;exitX=1;exitY=0.5;exitDx=0;exitDy=0;entryX=0.5;entryY=0;entryDx=0;entryDy=0;" edge="1" parent="1" source="KkR8MlcNK8oAM6XFenOb-210" target="KkR8MlcNK8oAM6XFenOb-218">
          <mxGeometry relative="1" as="geometry" />
        </mxCell>
        <mxCell id="KkR8MlcNK8oAM6XFenOb-210" value="¿Desea NIT?" style="rhombus;whiteSpace=wrap;html=1;rounded=0;" vertex="1" parent="1">
          <mxGeometry x="513.56" y="1540" width="145.88" height="30" as="geometry" />
        </mxCell>
        <mxCell id="KkR8MlcNK8oAM6XFenOb-211" value="" style="edgeStyle=orthogonalEdgeStyle;rounded=0;orthogonalLoop=1;jettySize=auto;html=1;" edge="1" parent="1" source="KkR8MlcNK8oAM6XFenOb-213" target="KkR8MlcNK8oAM6XFenOb-216">
          <mxGeometry relative="1" as="geometry" />
        </mxCell>
        <mxCell id="KkR8MlcNK8oAM6XFenOb-212" style="edgeStyle=orthogonalEdgeStyle;rounded=0;orthogonalLoop=1;jettySize=auto;html=1;exitX=0.5;exitY=1;exitDx=0;exitDy=0;entryX=0;entryY=0.5;entryDx=0;entryDy=0;" edge="1" parent="1" source="KkR8MlcNK8oAM6XFenOb-213" target="KkR8MlcNK8oAM6XFenOb-227">
          <mxGeometry relative="1" as="geometry" />
        </mxCell>
        <mxCell id="KkR8MlcNK8oAM6XFenOb-213" value="Pedir al usuario ingrese NIT" style="whiteSpace=wrap;html=1;rounded=0;" vertex="1" parent="1">
          <mxGeometry x="354.51" y="1580" width="197" height="35" as="geometry" />
        </mxCell>
        <mxCell id="KkR8MlcNK8oAM6XFenOb-214" value="" style="edgeStyle=orthogonalEdgeStyle;rounded=0;orthogonalLoop=1;jettySize=auto;html=1;entryX=0.5;entryY=0;entryDx=0;entryDy=0;" edge="1" parent="1" source="KkR8MlcNK8oAM6XFenOb-215" target="KkR8MlcNK8oAM6XFenOb-210">
          <mxGeometry relative="1" as="geometry" />
        </mxCell>
        <mxCell id="KkR8MlcNK8oAM6XFenOb-215" value="int NIT" style="shape=parallelogram;perimeter=parallelogramPerimeter;whiteSpace=wrap;html=1;fixedSize=1;" vertex="1" parent="1">
          <mxGeometry x="548" y="1480" width="77" height="35" as="geometry" />
        </mxCell>
        <mxCell id="KkR8MlcNK8oAM6XFenOb-216" value="NIT = &quot; &quot;" style="shape=parallelogram;perimeter=parallelogramPerimeter;whiteSpace=wrap;html=1;fixedSize=1;" vertex="1" parent="1">
          <mxGeometry x="570.5" y="1580" width="77" height="35" as="geometry" />
        </mxCell>
        <mxCell id="KkR8MlcNK8oAM6XFenOb-217" style="edgeStyle=orthogonalEdgeStyle;rounded=0;orthogonalLoop=1;jettySize=auto;html=1;exitX=0.5;exitY=1;exitDx=0;exitDy=0;entryX=1;entryY=0.5;entryDx=0;entryDy=0;" edge="1" parent="1" source="KkR8MlcNK8oAM6XFenOb-218" target="KkR8MlcNK8oAM6XFenOb-227">
          <mxGeometry relative="1" as="geometry" />
        </mxCell>
        <mxCell id="KkR8MlcNK8oAM6XFenOb-218" value="NIT = &quot;CONSUMIDOR FINAL&quot;" style="shape=parallelogram;perimeter=parallelogramPerimeter;whiteSpace=wrap;html=1;fixedSize=1;rounded=0;" vertex="1" parent="1">
          <mxGeometry x="642.5" y="1580" width="200.75" height="32.5" as="geometry" />
        </mxCell>
        <mxCell id="KkR8MlcNK8oAM6XFenOb-234" value="" style="edgeStyle=orthogonalEdgeStyle;rounded=0;orthogonalLoop=1;jettySize=auto;html=1;" edge="1" parent="1" source="KkR8MlcNK8oAM6XFenOb-220" target="KkR8MlcNK8oAM6XFenOb-230">
          <mxGeometry relative="1" as="geometry" />
        </mxCell>
        <mxCell id="KkR8MlcNK8oAM6XFenOb-220" value="Desplegar menú de opciones: 1 = Tarjeta ; 2 = Efectivo" style="whiteSpace=wrap;html=1;" vertex="1" parent="1">
          <mxGeometry x="433.25" y="1690" width="310" height="30" as="geometry" />
        </mxCell>
        <mxCell id="KkR8MlcNK8oAM6XFenOb-221" value="" style="edgeStyle=orthogonalEdgeStyle;rounded=0;orthogonalLoop=1;jettySize=auto;html=1;" edge="1" parent="1" source="KkR8MlcNK8oAM6XFenOb-222" target="KkR8MlcNK8oAM6XFenOb-220">
          <mxGeometry relative="1" as="geometry" />
        </mxCell>
        <mxCell id="KkR8MlcNK8oAM6XFenOb-222" value="int a4" style="shape=parallelogram;perimeter=parallelogramPerimeter;whiteSpace=wrap;html=1;fixedSize=1;" vertex="1" parent="1">
          <mxGeometry x="334" y="1690" width="70" height="35" as="geometry" />
        </mxCell>
        <mxCell id="KkR8MlcNK8oAM6XFenOb-226" style="edgeStyle=orthogonalEdgeStyle;rounded=0;orthogonalLoop=1;jettySize=auto;html=1;exitX=0.5;exitY=1;exitDx=0;exitDy=0;entryX=0.5;entryY=0;entryDx=0;entryDy=0;" edge="1" parent="1" source="KkR8MlcNK8oAM6XFenOb-227" target="KkR8MlcNK8oAM6XFenOb-220">
          <mxGeometry relative="1" as="geometry" />
        </mxCell>
        <mxCell id="KkR8MlcNK8oAM6XFenOb-227" value="¿Tipo de pago?" style="rounded=0;whiteSpace=wrap;html=1;" vertex="1" parent="1">
          <mxGeometry x="528.25" y="1630" width="120" height="40" as="geometry" />
        </mxCell>
        <mxCell id="KkR8MlcNK8oAM6XFenOb-230" value="a4 = &quot; &quot;" style="shape=parallelogram;perimeter=parallelogramPerimeter;whiteSpace=wrap;html=1;fixedSize=1;" vertex="1" parent="1">
          <mxGeometry x="772" y="1690" width="90" height="30" as="geometry" />
        </mxCell>
        <mxCell id="KkR8MlcNK8oAM6XFenOb-288" style="edgeStyle=orthogonalEdgeStyle;rounded=0;orthogonalLoop=1;jettySize=auto;html=1;exitX=0;exitY=0.5;exitDx=0;exitDy=0;entryX=0.5;entryY=0;entryDx=0;entryDy=0;" edge="1" parent="1" source="KkR8MlcNK8oAM6XFenOb-237" target="KkR8MlcNK8oAM6XFenOb-280">
          <mxGeometry relative="1" as="geometry" />
        </mxCell>
        <mxCell id="KkR8MlcNK8oAM6XFenOb-289" style="edgeStyle=orthogonalEdgeStyle;rounded=0;orthogonalLoop=1;jettySize=auto;html=1;exitX=1;exitY=0.5;exitDx=0;exitDy=0;" edge="1" parent="1" source="KkR8MlcNK8oAM6XFenOb-237" target="KkR8MlcNK8oAM6XFenOb-282">
          <mxGeometry relative="1" as="geometry" />
        </mxCell>
        <mxCell id="KkR8MlcNK8oAM6XFenOb-293" style="edgeStyle=orthogonalEdgeStyle;rounded=0;orthogonalLoop=1;jettySize=auto;html=1;exitX=0.5;exitY=1;exitDx=0;exitDy=0;entryX=0.5;entryY=0;entryDx=0;entryDy=0;" edge="1" parent="1" source="KkR8MlcNK8oAM6XFenOb-237" target="KkR8MlcNK8oAM6XFenOb-264">
          <mxGeometry relative="1" as="geometry" />
        </mxCell>
        <mxCell id="KkR8MlcNK8oAM6XFenOb-237" value="a4=1 ; a4=2" style="rhombus;whiteSpace=wrap;html=1;" vertex="1" parent="1">
          <mxGeometry x="495.74999999999994" y="1740" width="185" height="60" as="geometry" />
        </mxCell>
        <mxCell id="KkR8MlcNK8oAM6XFenOb-262" value="" style="edgeStyle=orthogonalEdgeStyle;rounded=0;orthogonalLoop=1;jettySize=auto;html=1;" edge="1" parent="1" source="KkR8MlcNK8oAM6XFenOb-264" target="KkR8MlcNK8oAM6XFenOb-269">
          <mxGeometry relative="1" as="geometry" />
        </mxCell>
        <mxCell id="KkR8MlcNK8oAM6XFenOb-263" value="" style="edgeStyle=orthogonalEdgeStyle;rounded=0;orthogonalLoop=1;jettySize=auto;html=1;" edge="1" parent="1" source="KkR8MlcNK8oAM6XFenOb-264" target="KkR8MlcNK8oAM6XFenOb-277">
          <mxGeometry relative="1" as="geometry" />
        </mxCell>
        <mxCell id="KkR8MlcNK8oAM6XFenOb-264" value="PrecioFinal = PrecioInicial + Azúcar + Leche" style="whiteSpace=wrap;html=1;fontStyle=1;" vertex="1" parent="1">
          <mxGeometry x="528.2450000000001" y="1869" width="120" height="60" as="geometry" />
        </mxCell>
        <mxCell id="KkR8MlcNK8oAM6XFenOb-265" value="" style="edgeStyle=orthogonalEdgeStyle;rounded=0;orthogonalLoop=1;jettySize=auto;html=1;" edge="1" parent="1" source="KkR8MlcNK8oAM6XFenOb-269" target="KkR8MlcNK8oAM6XFenOb-272">
          <mxGeometry relative="1" as="geometry" />
        </mxCell>
        <mxCell id="KkR8MlcNK8oAM6XFenOb-266" value="Sí" style="edgeLabel;html=1;align=center;verticalAlign=middle;resizable=0;points=[];" vertex="1" connectable="0" parent="KkR8MlcNK8oAM6XFenOb-265">
          <mxGeometry x="0.4153" relative="1" as="geometry">
            <mxPoint as="offset" />
          </mxGeometry>
        </mxCell>
        <mxCell id="KkR8MlcNK8oAM6XFenOb-267" style="edgeStyle=orthogonalEdgeStyle;rounded=0;orthogonalLoop=1;jettySize=auto;html=1;exitX=1;exitY=0.5;exitDx=0;exitDy=0;entryX=1;entryY=0.5;entryDx=0;entryDy=0;" edge="1" parent="1" source="KkR8MlcNK8oAM6XFenOb-269" target="KkR8MlcNK8oAM6XFenOb-274">
          <mxGeometry relative="1" as="geometry">
            <Array as="points">
              <mxPoint x="907" y="1974" />
              <mxPoint x="907" y="2112" />
              <mxPoint x="872" y="2112" />
            </Array>
          </mxGeometry>
        </mxCell>
        <mxCell id="KkR8MlcNK8oAM6XFenOb-268" value="No" style="edgeLabel;html=1;align=center;verticalAlign=middle;resizable=0;points=[];" vertex="1" connectable="0" parent="KkR8MlcNK8oAM6XFenOb-267">
          <mxGeometry x="-0.4146" y="-1" relative="1" as="geometry">
            <mxPoint as="offset" />
          </mxGeometry>
        </mxCell>
        <mxCell id="KkR8MlcNK8oAM6XFenOb-269" value="Tamaño = 0" style="rhombus;whiteSpace=wrap;html=1;fontStyle=1;" vertex="1" parent="1">
          <mxGeometry x="530.0400000000001" y="1950" width="116.41" height="47" as="geometry" />
        </mxCell>
        <mxCell id="KkR8MlcNK8oAM6XFenOb-270" value="" style="edgeStyle=orthogonalEdgeStyle;rounded=0;orthogonalLoop=1;jettySize=auto;html=1;" edge="1" parent="1" source="KkR8MlcNK8oAM6XFenOb-272" target="KkR8MlcNK8oAM6XFenOb-274">
          <mxGeometry relative="1" as="geometry" />
        </mxCell>
        <mxCell id="KkR8MlcNK8oAM6XFenOb-271" value="" style="edgeStyle=orthogonalEdgeStyle;rounded=0;orthogonalLoop=1;jettySize=auto;html=1;" edge="1" parent="1" source="KkR8MlcNK8oAM6XFenOb-272" target="KkR8MlcNK8oAM6XFenOb-278">
          <mxGeometry relative="1" as="geometry" />
        </mxCell>
        <mxCell id="KkR8MlcNK8oAM6XFenOb-272" value="PrecioFinal = PrecioFinal * 0.07" style="whiteSpace=wrap;html=1;fontStyle=1;" vertex="1" parent="1">
          <mxGeometry x="528.25" y="2023.75" width="120" height="39.5" as="geometry" />
        </mxCell>
        <mxCell id="KkR8MlcNK8oAM6XFenOb-291" value="" style="edgeStyle=orthogonalEdgeStyle;rounded=0;orthogonalLoop=1;jettySize=auto;html=1;" edge="1" parent="1" source="KkR8MlcNK8oAM6XFenOb-274" target="KkR8MlcNK8oAM6XFenOb-290">
          <mxGeometry relative="1" as="geometry" />
        </mxCell>
        <mxCell id="KkR8MlcNK8oAM6XFenOb-274" value="Imprimir en pantalla la factura, con las nuevas especificaciones del licuado y el Precio Final" style="whiteSpace=wrap;html=1;fontStyle=1;" vertex="1" parent="1">
          <mxGeometry x="306.63000000000005" y="2090" width="565.74" height="30.75" as="geometry" />
        </mxCell>
        <mxCell id="KkR8MlcNK8oAM6XFenOb-294" value="" style="edgeStyle=orthogonalEdgeStyle;rounded=0;orthogonalLoop=1;jettySize=auto;html=1;" edge="1" parent="1" source="KkR8MlcNK8oAM6XFenOb-276" target="KkR8MlcNK8oAM6XFenOb-269">
          <mxGeometry relative="1" as="geometry" />
        </mxCell>
        <mxCell id="KkR8MlcNK8oAM6XFenOb-276" value="Double PrecioFinal" style="shape=parallelogram;perimeter=parallelogramPerimeter;whiteSpace=wrap;html=1;fixedSize=1;" vertex="1" parent="1">
          <mxGeometry x="337.75" y="1956" width="158" height="35" as="geometry" />
        </mxCell>
        <mxCell id="KkR8MlcNK8oAM6XFenOb-277" value="PrecioFinal = &quot; &quot;" style="shape=parallelogram;perimeter=parallelogramPerimeter;whiteSpace=wrap;html=1;fixedSize=1;fontStyle=1;" vertex="1" parent="1">
          <mxGeometry x="682.22" y="1882.5" width="154.26" height="33" as="geometry" />
        </mxCell>
        <mxCell id="KkR8MlcNK8oAM6XFenOb-278" value="PrecioFinal = &quot; &quot;" style="shape=parallelogram;perimeter=parallelogramPerimeter;whiteSpace=wrap;html=1;fixedSize=1;fontStyle=1;" vertex="1" parent="1">
          <mxGeometry x="682.22" y="2027" width="154.26" height="33" as="geometry" />
        </mxCell>
        <mxCell id="KkR8MlcNK8oAM6XFenOb-286" style="edgeStyle=orthogonalEdgeStyle;rounded=0;orthogonalLoop=1;jettySize=auto;html=1;exitX=0.5;exitY=1;exitDx=0;exitDy=0;entryX=0.5;entryY=0;entryDx=0;entryDy=0;" edge="1" parent="1" source="KkR8MlcNK8oAM6XFenOb-280" target="KkR8MlcNK8oAM6XFenOb-264">
          <mxGeometry relative="1" as="geometry">
            <Array as="points">
              <mxPoint x="420" y="1860" />
              <mxPoint x="594" y="1860" />
              <mxPoint x="594" y="1869" />
            </Array>
          </mxGeometry>
        </mxCell>
        <mxCell id="KkR8MlcNK8oAM6XFenOb-280" value="&quot;Ingrese su número de tarjeta&quot;" style="whiteSpace=wrap;html=1;" vertex="1" parent="1">
          <mxGeometry x="324" y="1820" width="192.75" height="30" as="geometry" />
        </mxCell>
        <mxCell id="KkR8MlcNK8oAM6XFenOb-287" style="edgeStyle=orthogonalEdgeStyle;rounded=0;orthogonalLoop=1;jettySize=auto;html=1;exitX=0.5;exitY=1;exitDx=0;exitDy=0;entryX=0.5;entryY=0;entryDx=0;entryDy=0;" edge="1" parent="1" source="KkR8MlcNK8oAM6XFenOb-282" target="KkR8MlcNK8oAM6XFenOb-264">
          <mxGeometry relative="1" as="geometry">
            <mxPoint x="604" y="1870" as="targetPoint" />
            <Array as="points">
              <mxPoint x="766" y="1860" />
              <mxPoint x="594" y="1860" />
              <mxPoint x="594" y="1869" />
            </Array>
          </mxGeometry>
        </mxCell>
        <mxCell id="KkR8MlcNK8oAM6XFenOb-282" value="Al finalizar, entregue el efectivo toal" style="whiteSpace=wrap;html=1;" vertex="1" parent="1">
          <mxGeometry x="658.6200000000001" y="1820" width="213.75" height="30" as="geometry" />
        </mxCell>
        <mxCell id="KkR8MlcNK8oAM6XFenOb-290" value="Fin" style="ellipse;whiteSpace=wrap;html=1;fontStyle=1;" vertex="1" parent="1">
          <mxGeometry x="549.5" y="2150.005" width="80" height="80" as="geometry" />
        </mxCell>
      </root>
    </mxGraphModel>
  </diagram>
</mxfile>
